<?xml version="1.0" encoding="utf-8"?>
<!-- Generator: Adobe Illustrator 25.4.1, SVG Export Plug-In . SVG Version: 6.00 Build 0)  -->
<svg version="1.1" id="Layer_1" xmlns="http://www.w3.org/2000/svg" xmlns:xlink="http://www.w3.org/1999/xlink" x="0px" y="0px"
	 viewBox="0 0 1500 500" style="enable-background:new 0 0 1500 500;" xml:space="preserve">
<style type="text/css">
	.st0{fill:#193966;}
</style>
<g>
	<g>
		<path class="st0" d="M433.5,214.5c0-6.9,5.5-12.6,12.6-12.6c7.1,0,12.8,5.7,12.8,12.6v47.9c7.1-10.3,17.4-19.3,34.7-19.3
			c25,0,39.5,16.8,39.5,42.4v59.2c0,7.1-5.5,12.6-12.6,12.6c-7.1,0-12.8-5.5-12.8-12.6v-51.5c0-17.2-8.6-27.1-23.7-27.1
			c-14.7,0-25,10.3-25,27.5v51.1c0,7.1-5.7,12.6-12.8,12.6c-6.9,0-12.6-5.5-12.6-12.6V214.5z"/>
		<path class="st0" d="M564.6,387.4c-3.8-1.3-8-4.4-8-10.5c0-6.3,4.8-10.5,10.3-10.5c2.1,0,3.4,0.4,4.6,0.8c2.9,0.8,5.3,1.5,8.8,1.5
			c7.6,0,11.6-3.2,15.8-11.8l0.8-2.3l-41.2-92c-0.8-1.9-1.5-4.4-1.5-6.1c0-7.1,5.5-12.4,12.6-12.4c6.5,0,10.1,3.8,12.4,9.7
			l29.8,73.7l27.7-73.7c2.1-5.3,5.7-9.7,12.2-9.7c6.7,0,12.2,5.3,12.2,12c0,2.1-0.6,4.8-1.1,6.1l-40.5,97.3
			c-9.5,22.7-19.5,31.1-37.4,31.1C575.1,390.6,569.9,389.5,564.6,387.4z"/>
		<path class="st0" d="M790.9,344.8c0,7.1-5.7,12.6-12.6,12.6c-7.1,0-12.8-5.5-12.8-12.6v-6.9c-8.2,11.6-19.8,20.8-37.8,20.8
			c-26.1,0-51.5-20.8-51.5-57.6v-0.4c0-36.8,25-57.6,51.5-57.6c18.3,0,29.8,9,37.8,19.5v-48.1c0-7.1,5.7-12.6,12.6-12.6
			c7.1,0,12.8,5.5,12.8,12.6V344.8z M701.8,300.6v0.4c0,21.4,14.7,35.5,31.9,35.5c17,0,32.1-14.3,32.1-35.5v-0.4
			c0-21.4-15.1-35.5-32.1-35.5C716.3,265.1,701.8,278.6,701.8,300.6z"/>
		<path class="st0" d="M822.8,256.9c0-7.1,5.5-12.8,12.6-12.8c7.1,0,12.8,5.7,12.8,12.8v11.3c5.9-13.9,16.8-24.4,27.9-24.4
			c8,0,12.6,5.3,12.6,12.6c0,6.7-4.4,11.1-10.1,12.2c-18.1,3.2-30.5,17-30.5,43.3v32.8c0,6.9-5.7,12.6-12.8,12.6
			c-6.9,0-12.6-5.5-12.6-12.6V256.9z"/>
		<path class="st0" d="M897,324.4V324c0-24,18.7-35.7,45.8-35.7c12.4,0,21.2,1.9,29.8,4.6v-2.7c0-15.8-9.7-24.2-27.5-24.2
			c-9.7,0-17.6,1.7-24.6,4.4c-1.5,0.4-2.7,0.6-4,0.6c-5.9,0-10.7-4.6-10.7-10.5c0-4.6,3.2-8.6,6.9-10.1c10.5-4,21.2-6.5,35.7-6.5
			c16.6,0,29,4.4,36.8,12.4c8.2,8,12,19.8,12,34.2v54.6c0,6.9-5.5,12.2-12.4,12.2c-7.4,0-12.4-5-12.4-10.7v-4.2
			c-7.6,9-19.1,16.2-36.1,16.2C915.5,358.6,897,346.7,897,324.4z M973.1,316.4v-7.6c-6.5-2.5-15.1-4.4-25.2-4.4
			c-16.4,0-26.1,6.9-26.1,18.5v0.4c0,10.7,9.5,16.8,21.6,16.8C960.2,340.1,973.1,330.5,973.1,316.4z"/>
		<path class="st0" d="M1022.4,292c0-6.9,5.7-12.6,12.4-12.6h39.5c6.7,0,12.4,5.7,12.4,12.6c0,6.7-5.7,12.4-12.4,12.4h-39.5
			C1028.1,304.4,1022.4,298.8,1022.4,292z"/>
		<path class="st0" d="M1105.6,346v-0.4c0-4.8,1.7-8,5.7-12.2l59-67.2H1118c-5.9,0-10.5-4.6-10.5-10.3c0-5.9,4.6-10.5,10.5-10.5
			h73.1c6.9,0,12.2,4.2,12.2,10.1v0.6c0,4.8-1.7,8-5.5,12.2l-59.2,67.2h54.6c5.9,0,10.5,4.6,10.5,10.5c0,5.7-4.6,10.3-10.5,10.3
			H1118C1110.9,356.3,1105.6,351.9,1105.6,346z"/>
		<path class="st0" d="M1276.7,358.8c-32.1,0-56.9-23.3-56.9-57.6v-0.4c0-31.7,22.5-57.8,54.2-57.8c35.3,0,52.7,29,52.7,54.6
			c0,7.1-5.5,12.2-12,12.2h-69.5c2.7,18.1,15.5,28.2,31.9,28.2c10.7,0,19.1-3.8,26.3-9.7c1.9-1.5,3.6-2.3,6.5-2.3
			c5.7,0,10.1,4.4,10.1,10.3c0,3.2-1.5,5.9-3.4,7.8C1306.5,353.2,1293.9,358.8,1276.7,358.8z M1301.9,293.1
			c-1.7-16.4-11.3-29.2-28.2-29.2c-15.5,0-26.5,12-28.8,29.2H1301.9z"/>
		<path class="st0" d="M1352.7,256.9c0-7.1,5.5-12.8,12.6-12.8c7.1,0,12.8,5.7,12.8,12.8v5.5c7.1-10.3,17.4-19.3,34.7-19.3
			c25,0,39.5,16.8,39.5,42.4v59.2c0,7.1-5.5,12.6-12.6,12.6c-7.1,0-12.8-5.5-12.8-12.6v-51.5c0-17.2-8.6-27.1-23.7-27.1
			c-14.7,0-25,10.3-25,27.5v51.1c0,7.1-5.7,12.6-12.8,12.6c-6.9,0-12.6-5.5-12.6-12.6V256.9z"/>
	</g>
	<path class="st0" d="M391.5,343.5c-2.9,2.5-10.1,2.9-10.1,2.9l2.6-1.6h-2.3c5.4-3.9,6.6-11.7,6.6-11.7c-1.1,1.6-6.1,5.1-8.3,6.1
		s-11.6,0.4-11.6,0.4c3-1.1,4.6-2.5,4.6-2.5h-1.9c1.4-1,4.3-5.7,4.3-5.7l-1.8,0.4c2.7-3.9-3.3-12.3-3.3-12.3
		c1.9,5.9-2.5,11.7-2.5,11.7s-2.9,7.1-10.2,5.6c-7.3-1.4-6.3-8.6-4.7-9.3c1.6-0.6,3.8-4.1,3.8-4.1c1.8-5.3,12.4-5.3,12.4-5.3
		c-6-5.5-16.1-0.4-16.1-0.4l0.6-1.9c-1.3,1.6-7.6,6.2-7.6,6.2l0.9-2.6c-1.2,2.2-7.9,8.2-7.9,8.2v-2.2c-0.2,3.2-8.7,7.4-11,6.8
		c0,0-3.8-0.3-8.2-4.6c-4.4-4.3-19.9-11.8-19.9-11.8c-12.1-6.5-10.6-24-10.6-24l0,0c1.4-18.8-0.9-38-7.8-57.7
		c6.8-0.3,12.6,1.4,15.4,9.4c2.3,6.8,6.7,9.3,14.2,6.3c14.3-5.8,28.8-8.6,42.3,1.2c7.3-5.5,5.2-12,3.4-18.3
		c-1.9-6.2-7.4-5.1-12.3-6.2c-5.9-1.4-13.1-2.8-16.8-6.9c-5.7-6.1-11.8-9.4-19.7-9.9c-13.3-0.9-24.6-5.3-32.7-17.8
		c-1,10.4,7.5,14,12.7,20.8c-5.4-0.6-9.8-0.8-14.1-1.5c-20.2-3.3-35.1-13.3-41.5-33.7c-2.6-8.2-0.5-16.9,5.3-20.8
		c8.9-6.1,18.1-4.3,27.1-0.2c7.9,3.7,14.8,8.1,13.3,18.9c-0.8,5.8,1.7,10,8.6,10.7c16.6,1.8,32.4,5.3,40.9,21.8
		c2.2-1.2,4.1-2.4,5.6-3.8c-3.4-2.8-10.2-8.5-13.3-11.5c-0.4-0.4-1.7-1.3-3.1-2.4c-5.4-4-10.3-7.8-10.6-10.3
		c-0.1-0.6,0.1-1.1,0.4-1.5l3.3,0.4c-3,2.8,19.7,17.1,25.4,23.3c7.2-7.1,4.7-14.7-5.2-21.7c-5.1-3.6-11.1-8.4-12.9-13.9
		c-2.7-8.6-7.6-13.9-14.5-18.7c-4.8-3.4-9.8-7.5-12.7-12.4c-5.1-8.5-8.7-17.9-12.8-26.4c-3,10.6,2.8,21,5.9,31.2
		c-17.4-4-23.8-24-43.1-27.6c6.7,6.6,15.1,9.7,16.1,19.1c-42.6-5-47-4.8-56.1,3.3c11.6-3.5,22.5-4.8,34,0.9
		c-25,4-43.3,16.5-48.6,32.8c4.1-2.3,8.1-4.5,13.3-7.5c-2.9,21.3-7.6,41.9,10.2,59.2c-1.2-6.4-2.2-11.9-2.9-15.4
		c4.9,4.1,10.6,8.8,16.1,13.4c-5.4,2.9-10.7,5.6-15.9,8.4c9.4-0.6,18.1-6.2,28.8,0.8c-21.1,4.8-33.3,17.6-42.3,36.9
		c5.3-3.7,8.8-6.1,12.4-8.6c-9.7,19.2-4.7,22.2-7,37.9c-3.3,12.6,2.1-1.8-10.8-12.3c-1-0.8-2.1-1.6-3.1-2.3
		c-12.8-10.6-14.7-31.2-3.1-42.3c-0.3,5.7-0.6,10.9-0.9,17.4c12.1-16.8,10-32.8,2.4-49.5c2.6,1.6,5.1,3.2,9.6,5.9
		c-7.1-14.3-15-24.5-28.6-29.3c5.1,1.4,10.1,2.8,17.7,4.8c-12.4-13.3-25.7-16.9-41.4-16.7c5.5-3.5,11-6.9,18.2-11.5
		c-15.4,1.2-25.8,8.7-36.1,17.1c-1.5-14.7-5-18.9-15.8-19.7c6.8,5.9,7.1,13.1,3.6,20.2c-3.3,6.8-8,13-11.6,19.7
		c-2.5,4.6-4.1,9.7-5.9,14.6c-2.3,6-4.6,12.1-6.8,18.2c-1.5,4.1-4.8,8.7-4,12.4c0.8,3.6,2.7,7,5.9,8.7c0.8-4.6,4.4-13.4,8.6-18.2
		c3.9-4.4,7.4-7.5,7.9-10.4c0.3-1.8-0.9-4-0.9-4.1l3.1-1c0.5,0.3,1,3.1,0.9,4.8c-0.1,3.5-4.4,7.3-9.5,13.1
		c-3.3,3.7-6.5,11.7-7.3,16.6c1.3,0.2,2.8,0.3,4.5,0c2.9-14.2,13.3-21.3,25.6-26.4c6.2-2.6,9.6-5.9,6.5-13.1c-2.6-6,0.2-9.7,6-11.8
		c8.9-3.2,18.6,2.4,19.1,12.8c0.3,7.7-0.7,16.2-3.8,23.2c-7.5,16.9-7.8,34.2-1.7,49.2c0,0.1,0.1,0.3,0.1,0.4
		c0.1,0.2,0.2,0.4,0.3,0.6c0.2,0.5,0.4,1,0.7,1.5c0.8,1.8,1.6,3.6,2.3,5.4l0,0c0.1,2,0.7,17.7-10.6,23.8c0,0-15.5,7.6-19.9,11.8
		c-4.4,4.3-8.2,4.6-8.2,4.6c-2.3,0.6-10.8-3.7-11-6.8l0,2.2c0,0-6.6-6-7.9-8.2l0.9,2.6c0,0-6.3-4.6-7.6-6.2l0.6,1.9
		c0,0-10.1-5.1-16.1,0.4c0,0,10.7,0,12.4,5.3c0,0,2.2,3.5,3.8,4.1c1.6,0.6,2.6,7.9-4.7,9.3c-7.3,1.4-10.2-5.6-10.2-5.6
		s-4.4-5.8-2.5-11.7c0,0-6,8.4-3.3,12.3l-1.8-0.4c0,0,2.9,4.7,4.3,5.7h-1.9c0,0,1.6,1.4,4.6,2.5c0,0-9.5,0.5-11.6-0.4
		c-2.1-1-7.2-4.5-8.3-6.1c0,0,1.2,7.9,6.6,11.7h-2.3l2.6,1.6c0,0-7.1-0.4-10.1-2.9c0,0,3.9,5.6,8.6,6.3l-2.2,1.1h15.8l-5.3,1.8
		c0,0,21.2,0.2,25.7-0.9l-5.5,3.3c0,0,23.6-0.4,32-6.9l-3.1,4.7l21.8-15.2c-0.5,2.3-1.5,6.4-0.4,7.4c1.3-0.2,8.3-12.8,12-14.5
		c2.5-1.2,8.4-4.8,13.2,6.3l0,0c0.1,0.2,0.2,0.4,0.2,0.5c1.8,12.2,2.9,20,7.9,20c15.8,0,87.3,0,101.4,0c3.6-6.8,6.7-13.5,9.3-20.3
		c0-0.1,0.1-0.1,0.1-0.2c4.8-11.1,10.6-7.5,13.2-6.3c3.7,1.7,10.6,14.3,12,14.5c1.1-1.1,0-5.1-0.4-7.4l21.8,15.2l-3.1-4.7
		c8.5,6.5,32,6.9,32,6.9l-5.5-3.3c4.5,1.1,25.7,0.9,25.7,0.9l-5.3-1.8h15.8l-2.2-1.1C387.6,349.1,391.5,343.5,391.5,343.5z M323,222
		l-1.6,2c-4.6-3.5-7.3-1.6-7.5-1.5l-1.1-2.3C313,220.1,317.6,217.7,323,222z M309.8,166l-2.3,1c-1.4-3.3-6.2-2.5-6.2-2.5l-0.1-2.4
		C301.5,162,308,161.6,309.8,166z M104.6,201.9l-2.4-0.9c1.2-2,1.2-4.6,8.8-5.4l0.2,2.3C106.3,198.4,104.4,201.2,104.6,201.9z
		 M252.2,301.2c-4.8-5.5-9.6-11-14.2-16.5c-11-13.1-9.9-24.3,3.5-35.1c2.8-2.3,6-4.1,8.9-6.2C264.7,258.8,265.3,281.7,252.2,301.2z"
		/>
</g>
</svg>
