<?xml version="1.0" encoding="utf-8"?>
<!-- Generator: Adobe Illustrator 25.4.1, SVG Export Plug-In . SVG Version: 6.00 Build 0)  -->
<svg version="1.1" id="Layer_1" xmlns="http://www.w3.org/2000/svg" xmlns:xlink="http://www.w3.org/1999/xlink" x="0px" y="0px"
	 viewBox="0 0 500 500" style="enable-background:new 0 0 500 500;" xml:space="preserve">
<style type="text/css">
	.st0{fill:#193966;}
	.st1{fill:#FFFFFF;}
</style>
<path class="st0" d="M449.3,0H50.7C22.8,0,0,22.8,0,50.7v398.5C0,477.2,22.8,500,50.7,500h398.5c27.9,0,50.7-22.8,50.7-50.7V50.7
	C500,22.8,477.2,0,449.3,0z"/>
<g>
	<path class="st1" d="M38.2,392.1c0-2.9,2.3-5.2,5.2-5.2c3,0,5.3,2.4,5.3,5.2V412c3-4.3,7.2-8,14.4-8c10.4,0,16.4,7,16.4,17.6v24.6
		c0,3-2.3,5.2-5.2,5.2c-3,0-5.3-2.3-5.3-5.2v-21.4c0-7.2-3.6-11.3-9.9-11.3c-6.1,0-10.4,4.3-10.4,11.4v21.2c0,3-2.4,5.2-5.3,5.2
		c-2.9,0-5.2-2.3-5.2-5.2V392.1z"/>
	<path class="st1" d="M92.7,463.9c-1.6-0.5-3.3-1.8-3.3-4.4c0-2.6,2-4.4,4.3-4.4c0.9,0,1.4,0.2,1.9,0.3c1.2,0.3,2.2,0.6,3.7,0.6
		c3.1,0,4.8-1.3,6.6-4.9l0.3-1l-17.1-38.3c-0.3-0.8-0.6-1.8-0.6-2.5c0-3,2.3-5.2,5.2-5.2c2.7,0,4.2,1.6,5.2,4l12.4,30.7l11.5-30.7
		c0.9-2.2,2.4-4,5.1-4c2.8,0,5.1,2.2,5.1,5c0,0.9-0.3,2-0.4,2.5l-16.9,40.4c-3.9,9.4-8.1,12.9-15.5,12.9
		C97.1,465.2,94.9,464.8,92.7,463.9z"/>
	<path class="st1" d="M186.8,446.2c0,3-2.4,5.2-5.2,5.2c-3,0-5.3-2.3-5.3-5.2v-2.9c-3.4,4.8-8.2,8.6-15.7,8.6
		c-10.8,0-21.4-8.6-21.4-23.9v-0.2c0-15.3,10.4-23.9,21.4-23.9c7.6,0,12.4,3.8,15.7,8.1v-20c0-3,2.4-5.2,5.2-5.2
		c3,0,5.3,2.3,5.3,5.2V446.2z M149.8,427.9v0.2c0,8.9,6.1,14.8,13.3,14.8c7.1,0,13.4-5.9,13.4-14.8v-0.2c0-8.9-6.3-14.8-13.4-14.8
		C155.8,413.1,149.8,418.7,149.8,427.9z"/>
	<path class="st1" d="M200.1,409.7c0-3,2.3-5.3,5.2-5.3c3,0,5.3,2.4,5.3,5.3v4.7c2.4-5.8,7-10.1,11.6-10.1c3.3,0,5.2,2.2,5.2,5.2
		c0,2.8-1.8,4.6-4.2,5.1c-7.5,1.3-12.7,7.1-12.7,18v13.6c0,2.9-2.4,5.2-5.3,5.2c-2.9,0-5.2-2.3-5.2-5.2V409.7z"/>
	<path class="st1" d="M230.9,437.7v-0.2c0-10,7.8-14.8,19-14.8c5.2,0,8.8,0.8,12.4,1.9v-1.1c0-6.6-4-10-11.4-10
		c-4,0-7.3,0.7-10.2,1.8c-0.6,0.2-1.1,0.3-1.7,0.3c-2.4,0-4.5-1.9-4.5-4.4c0-1.9,1.3-3.6,2.9-4.2c4.4-1.7,8.8-2.7,14.8-2.7
		c6.9,0,12.1,1.8,15.3,5.2c3.4,3.3,5,8.2,5,14.2v22.7c0,2.9-2.3,5.1-5.2,5.1c-3.1,0-5.2-2.1-5.2-4.5v-1.7c-3.1,3.8-7.9,6.7-15,6.7
		C238.6,452,230.9,447,230.9,437.7z M262.5,434.4v-3.1c-2.7-1-6.3-1.8-10.5-1.8c-6.8,0-10.8,2.9-10.8,7.7v0.2c0,4.5,3.9,7,9,7
		C257.2,444.3,262.5,440.3,262.5,434.4z"/>
	<path class="st1" d="M283.1,424.3c0-2.9,2.4-5.2,5.2-5.2h16.4c2.8,0,5.2,2.4,5.2,5.2c0,2.8-2.4,5.2-5.2,5.2h-16.4
		C285.4,429.4,283.1,427.1,283.1,424.3z"/>
	<path class="st1" d="M317.7,446.7v-0.2c0-2,0.7-3.3,2.4-5.1l24.5-27.9h-21.7c-2.4,0-4.4-1.9-4.4-4.3c0-2.4,1.9-4.4,4.4-4.4h30.4
		c2.9,0,5.1,1.7,5.1,4.2v0.3c0,2-0.7,3.3-2.3,5.1l-24.6,27.9h22.7c2.4,0,4.4,1.9,4.4,4.4c0,2.4-1.9,4.3-4.4,4.3h-31.3
		C319.8,451,317.7,449.2,317.7,446.7z"/>
	<path class="st1" d="M388.7,452.1c-13.4,0-23.7-9.7-23.7-23.9v-0.2c0-13.2,9.3-24,22.5-24c14.7,0,21.9,12.1,21.9,22.7
		c0,3-2.3,5.1-5,5.1h-28.9c1.1,7.5,6.5,11.7,13.3,11.7c4.5,0,7.9-1.6,10.9-4c0.8-0.6,1.5-1,2.7-1c2.4,0,4.2,1.8,4.2,4.3
		c0,1.3-0.6,2.4-1.4,3.2C401.2,449.7,395.9,452.1,388.7,452.1z M399.2,424.7c-0.7-6.8-4.7-12.1-11.7-12.1c-6.5,0-11,5-12,12.1H399.2
		z"/>
	<path class="st1" d="M420.4,409.7c0-3,2.3-5.3,5.2-5.3c3,0,5.3,2.4,5.3,5.3v2.3c3-4.3,7.2-8,14.4-8c10.4,0,16.4,7,16.4,17.6v24.6
		c0,3-2.3,5.2-5.2,5.2c-3,0-5.3-2.3-5.3-5.2v-21.4c0-7.2-3.6-11.3-9.9-11.3c-6.1,0-10.4,4.3-10.4,11.4v21.2c0,3-2.4,5.2-5.3,5.2
		c-2.9,0-5.2-2.3-5.2-5.2V409.7z"/>
</g>
<path class="st1" d="M473.1,341.6c-3.8,3.2-13.1,3.8-13.1,3.8l3.4-2.1h-3c7-5,8.6-15.2,8.6-15.2c-1.4,2.1-8,6.6-10.7,7.9
	c-2.7,1.3-15.1,0.6-15.1,0.6c3.9-1.4,6-3.2,6-3.2h-2.5c1.8-1.4,5.6-7.5,5.6-7.5l-2.3,0.6c3.5-5-4.2-15.9-4.2-15.9
	c2.5,7.7-3.2,15.2-3.2,15.2s-3.8,9.2-13.3,7.3c-9.5-1.8-8.1-11.2-6.1-12c2.1-0.8,4.9-5.4,4.9-5.4c2.3-6.9,16.1-6.9,16.1-6.9
	c-7.8-7.1-20.8-0.5-20.8-0.5l0.8-2.4c-1.7,2.1-9.8,8.1-9.8,8.1l1.1-3.4c-1.6,2.9-10.2,10.6-10.2,10.6v-2.9
	c-0.3,4.1-11.3,9.6-14.2,8.9c0,0-4.9-0.5-10.6-6c-5.8-5.5-25.9-15.3-25.9-15.3c-15.7-8.4-13.8-31.1-13.8-31.1l0,0
	c1.9-24.4-1.2-49.3-10.1-74.9c8.8-0.4,16.4,1.8,19.9,12.2c3,8.8,8.7,12,18.4,8.2c18.6-7.5,37.4-11.2,54.9,1.6
	c9.5-7.2,6.8-15.6,4.4-23.8c-2.4-8.1-9.7-6.6-15.9-8.1c-7.7-1.8-17-3.7-21.9-9c-7.4-8-15.4-12.2-25.5-12.9
	c-17.3-1.1-32-6.9-42.4-23.1c-1.3,13.5,9.7,18.2,16.5,27c-7.1-0.7-12.7-1-18.3-1.9c-26.2-4.3-45.6-17.3-53.9-43.7
	c-3.4-10.7-0.6-21.9,6.8-27c11.5-7.9,23.5-5.6,35.1-0.2C319.1,104.2,328,110,326,124c-1.1,7.6,2.2,12.9,11.2,13.9
	c21.5,2.3,42.1,6.8,53,28.3c2.9-1.5,5.3-3.2,7.3-4.9c-4.4-3.6-13.3-11.1-17.3-15c-0.6-0.6-2.2-1.7-4-3.1c-7-5.2-13.3-10.1-13.8-13.4
	c-0.1-0.7,0.1-1.4,0.5-1.9l4.3,0.5c-3.9,3.6,25.5,22.2,32.9,30.3c9.4-9.2,6.1-19.1-6.8-28.1c-6.7-4.7-14.4-10.9-16.7-18.1
	c-3.5-11.1-9.8-18-18.8-24.3c-6.3-4.4-12.7-9.7-16.5-16.1c-6.6-11-11.3-23.2-16.6-34.3c-3.9,13.8,3.6,27.2,7.6,40.6
	c-22.6-5.1-30.9-31.2-55.9-35.8c8.6,8.5,19.5,12.6,20.9,24.8c-55.3-6.6-60.9-6.3-72.8,4.2c15.1-4.5,29.2-6.3,44.1,1.2
	c-32.5,5.2-56.1,21.4-63.1,42.6c5.3-2.9,10.5-5.9,17.3-9.7c-3.8,27.7-9.8,54.3,13.3,76.8c-1.6-8.4-2.9-15.4-3.7-20
	c6.4,5.3,13.7,11.4,20.8,17.4c-7,3.7-13.8,7.3-20.6,10.9c12.2-0.7,23.5-8,37.4,1c-27.3,6.2-43.2,22.8-54.9,47.9
	c6.9-4.8,11.5-8,16.1-11.2c-12.5,24.9-6.1,28.8-9.1,49.2c-4.3,16.4,2.7-2.3-14-15.9c-1.3-1.1-2.7-2-4-2.9
	c-16.6-13.8-19.1-40.5-4.1-54.9c-0.4,7.4-0.7,14.2-1.2,22.5c15.7-21.7,12.9-42.6,3.1-64.3c3.3,2.1,6.6,4.1,12.4,7.7
	c-9.2-18.5-19.4-31.8-37.1-38.1c6.6,1.8,13.1,3.6,23,6.3c-16.2-17.3-33.3-22-53.7-21.7c7.1-4.5,14.2-9,23.6-15
	c-20,1.5-33.4,11.3-46.8,22.1c-1.9-19-6.5-24.6-20.4-25.6c8.9,7.7,9.2,17,4.6,26.2c-4.3,8.9-10.4,16.9-15.1,25.6
	c-3.2,6-5.3,12.6-7.7,19c-3,7.8-6,15.7-8.9,23.6c-2,5.4-6.2,11.3-5.2,16.1c1,4.7,3.5,9.1,7.7,11.3c1.1-6,5.7-17.4,11.1-23.6
	c5-5.7,9.7-9.7,10.3-13.4c0.4-2.4-1.2-5.2-1.2-5.3l4-1.3c0.6,0.4,1.3,4,1.2,6.2c-0.1,4.5-5.7,9.5-12.3,17
	c-4.3,4.8-8.5,15.2-9.5,21.6c1.7,0.3,3.7,0.4,5.8,0c3.7-18.5,17.3-27.6,33.2-34.3c8-3.4,12.5-7.6,8.4-17c-3.4-7.7,0.3-12.6,7.8-15.3
	c11.6-4.2,24.2,3.1,24.8,16.6c0.4,10-0.9,21.1-4.9,30.1c-9.7,21.9-10.1,44.4-2.2,63.8c0.1,0.2,0.1,0.3,0.2,0.5
	c0.1,0.3,0.2,0.6,0.4,0.8c0.3,0.6,0.6,1.3,0.9,1.9c1.1,2.4,2,4.7,2.9,7.1l0,0c0.2,2.5,1,23-13.8,30.8c0,0-20.1,9.8-25.9,15.3
	c-5.8,5.5-10.6,6-10.6,6c-2.9,0.7-14-4.7-14.2-8.9l0,2.9c0,0-8.6-7.8-10.2-10.6l1.1,3.4c0,0-8.1-6-9.8-8.1l0.8,2.4
	c0,0-13-6.6-20.8,0.5c0,0,13.8,0,16.1,6.9c0,0,2.9,4.6,4.9,5.4c2.1,0.8,3.4,10.2-6.1,12c-9.5,1.8-13.3-7.3-13.3-7.3
	s-5.7-7.6-3.2-15.2c0,0-7.8,10.9-4.2,15.9l-2.3-0.6c0,0,3.8,6.1,5.6,7.5h-2.5c0,0,2.1,1.8,6,3.2c0,0-12.4,0.7-15.1-0.6
	c-2.7-1.3-9.3-5.8-10.7-7.9c0,0,1.6,10.2,8.6,15.2h-3l3.4,2.1c0,0-9.3-0.6-13.1-3.8c0,0,5,7.2,11.1,8.1l-2.9,1.4h20.5l-6.9,2.3
	c0,0,27.5,0.2,33.3-1.1l-7.1,4.2c0,0,30.6-0.5,41.6-8.9l-4,6.1l28.3-19.7c-0.6,3-2,8.3-0.6,9.6c1.7-0.2,10.8-16.6,15.5-18.8
	c3.3-1.5,10.9-6.2,17.1,8.1l0,0c0.1,0.3,0.2,0.5,0.3,0.7c2.3,15.9,3.8,25.9,10.2,25.9c20.5,0,113.3,0,131.6,0
	c4.6-8.8,8.7-17.6,12.1-26.4c0-0.1,0.1-0.1,0.1-0.2c6.2-14.4,13.8-9.7,17.1-8.2c4.7,2.2,13.8,18.5,15.5,18.8c1.4-1.4,0-6.6-0.6-9.6
	l28.3,19.7l-4-6.1c11,8.5,41.6,8.9,41.6,8.9l-7.1-4.2c5.8,1.4,33.3,1.1,33.3,1.1l-6.9-2.3h20.5l-2.9-1.4
	C468,348.8,473.1,341.6,473.1,341.6z M384.1,184l-2,2.7c-5.9-4.5-9.5-2.1-9.7-2l-1.5-3C371.1,181.5,377.1,178.3,384.1,184z
	 M367.1,111.2l-2.9,1.2c-1.8-4.3-8-3.2-8.1-3.2l-0.2-3.2C356.3,106.1,364.7,105.5,367.1,111.2z M100.7,157.8l-3.2-1.2
	c1.5-2.6,1.6-5.9,11.4-7l0.3,3C103,153.3,100.5,157,100.7,157.8z M292.2,286.8c-6.2-7.2-12.4-14.2-18.5-21.4
	c-14.3-17-12.8-31.6,4.6-45.5c3.7-2.9,7.7-5.4,11.5-8C308.5,231.6,309.3,261.5,292.2,286.8z"/>
</svg>
